<svg xmlns="http://www.w3.org/2000/svg" xmlns:xlink="http://www.w3.org/1999/xlink" viewBox="0 0 175 215.51"><defs><style>.cls-1{isolation:isolate;}.cls-2{fill:#dabca5;}.cls-10,.cls-2,.cls-3,.cls-4,.cls-6,.cls-8,.cls-9{fill-rule:evenodd;}.cls-3{fill:url(#linear-gradient);}.cls-4{fill:url(#linear-gradient-2);}.cls-5{fill:url(#linear-gradient-3);}.cls-6{fill:url(#linear-gradient-4);}.cls-7{fill:url(#linear-gradient-5);}.cls-8{fill:url(#linear-gradient-6);}.cls-9{fill:url(#linear-gradient-7);}.cls-10{fill:url(#linear-gradient-8);}.cls-11{fill:url(#linear-gradient-9);}.cls-12{fill:url(#linear-gradient-10);}.cls-13{mix-blend-mode:multiply;opacity:0.23;}.cls-14{fill:url(#linear-gradient-11);}.cls-15{fill:url(#radial-gradient);}.cls-16{fill:url(#linear-gradient-12);}.cls-17{fill:#c9ae9d;}.cls-18{fill:url(#linear-gradient-13);}.cls-19{fill:url(#linear-gradient-14);}.cls-20{fill:url(#linear-gradient-15);}.cls-21{fill:url(#linear-gradient-16);}</style><linearGradient id="linear-gradient" x1="19.53" y1="181.9" x2="155.14" y2="46.29" gradientUnits="userSpaceOnUse"><stop offset="0" stop-color="#80d0c7"/><stop offset="1" stop-color="#13547a"/></linearGradient><linearGradient id="linear-gradient-2" x1="23.69" y1="177.74" x2="150.99" y2="50.44" xlink:href="#linear-gradient"/><linearGradient id="linear-gradient-3" x1="140.19" y1="108.22" x2="109.4" y2="-88.16" gradientUnits="userSpaceOnUse"><stop offset="0" stop-color="#fbf7f4"/><stop offset="0.2" stop-color="#faf3ef"/><stop offset="0.37" stop-color="#f7ede5"/><stop offset="0.63" stop-color="#fff"/><stop offset="1" stop-color="#8d7b6c"/></linearGradient><linearGradient id="linear-gradient-4" x1="134.88" y1="133.97" x2="260.87" y2="72.51" xlink:href="#linear-gradient-3"/><linearGradient id="linear-gradient-5" x1="-273.79" y1="108.22" x2="-304.59" y2="-88.16" gradientTransform="matrix(-1, 0, 0, 1, -238.98, 0)" xlink:href="#linear-gradient-3"/><linearGradient id="linear-gradient-6" x1="-279.11" y1="133.97" x2="-214.42" y2="102.42" gradientTransform="matrix(-1, 0, 0, 1, -238.98, 0)" xlink:href="#linear-gradient-3"/><linearGradient id="linear-gradient-7" x1="22.84" y1="158.2" x2="118.05" y2="247.57" xlink:href="#linear-gradient-3"/><linearGradient id="linear-gradient-8" x1="87.34" y1="183.89" x2="174.53" y2="183.89" xlink:href="#linear-gradient-3"/><linearGradient id="linear-gradient-9" x1="67.57" y1="31.73" x2="67.57" y2="10.58" gradientUnits="userSpaceOnUse"><stop offset="0" stop-color="#80d0c7"/><stop offset="0.12" stop-color="#65b1b4"/><stop offset="0.29" stop-color="#48909f"/><stop offset="0.46" stop-color="#31768f"/><stop offset="0.63" stop-color="#206383"/><stop offset="0.81" stop-color="#16587c"/><stop offset="1" stop-color="#13547a"/></linearGradient><linearGradient id="linear-gradient-10" x1="-227.32" y1="31.73" x2="-227.32" y2="10.58" gradientTransform="matrix(-1, 0, 0, 1, -119.88, 0)" xlink:href="#linear-gradient-9"/><linearGradient id="linear-gradient-11" x1="95.28" y1="67.86" x2="74.51" y2="-64.6" gradientUnits="userSpaceOnUse"><stop offset="0" stop-color="#fffbfd"/><stop offset="1" stop-color="#e7c6b5"/></linearGradient><radialGradient id="radial-gradient" cx="87.5" cy="24.24" r="17.27" xlink:href="#linear-gradient"/><linearGradient id="linear-gradient-12" x1="79.74" y1="25.07" x2="95.25" y2="25.07" gradientUnits="userSpaceOnUse"><stop offset="0" stop-color="#fffdf8"/><stop offset="1" stop-color="#cdaa92"/></linearGradient><linearGradient id="linear-gradient-13" x1="80.79" y1="19.58" x2="86.48" y2="19.58" gradientUnits="userSpaceOnUse"><stop offset="0" stop-color="#fffdf8"/><stop offset="0.04" stop-color="#fbf6ef"/><stop offset="0.22" stop-color="#eadbce"/><stop offset="0.41" stop-color="#ddc5b3"/><stop offset="0.59" stop-color="#d4b6a1"/><stop offset="0.79" stop-color="#cfad96"/><stop offset="1" stop-color="#cdaa92"/></linearGradient><linearGradient id="linear-gradient-14" x1="88.51" y1="19.58" x2="94.2" y2="19.58" gradientUnits="userSpaceOnUse"><stop offset="0" stop-color="#cdaa92"/><stop offset="0.21" stop-color="#cfad96"/><stop offset="0.41" stop-color="#d4b6a1"/><stop offset="0.59" stop-color="#ddc5b3"/><stop offset="0.78" stop-color="#eadbce"/><stop offset="0.96" stop-color="#fbf6ef"/><stop offset="1" stop-color="#fffdf8"/></linearGradient><linearGradient id="linear-gradient-15" x1="87.49" y1="28.32" x2="87.49" y2="23.29" xlink:href="#linear-gradient-13"/><linearGradient id="linear-gradient-16" x1="87.5" y1="34.87" x2="87.5" y2="30.84" xlink:href="#linear-gradient-13"/></defs><g class="cls-1"><g id="Layer_2" data-name="Layer 2"><g id="Layer_1-2" data-name="Layer 1"><path class="cls-2" d="M87.5,18.71l41.31,23.84,41.3,23.85v95.39l-41.3,23.84L87.5,209.48,46.2,185.63,4.9,161.79V66.4L46.2,42.55,87.5,18.71Zm0,19,33.07,19.09,33.06,19.09v76.36l-33.06,19.09L87.5,190.45,54.44,171.36,21.37,152.27V75.91L54.44,56.82,87.5,37.73Z"/><path class="cls-3" d="M130.32,39.63l-21.49-12.4L87.34,14.82,65.84,27.23,44.35,39.63l-43,24.82v99.28h0l21.49,12.41,21.5,12.41L65.84,201l21.5,12.41L108.83,201l21.49-12.41,21.5-12.41,21.49-12.41h0V64.45Zm15.36,120.25-6.9-5L101,176l.71,9.33-14.35,8.29-8-4.61-6.2-3.58.92-8L37.12,154.87l-7.79,5.21-10.82-6.25v-14l8.09-3.73V92.79l-8.09-3.74V74.36l21-12.13,13.4-7.74,24-13.87,10.4-6,34.41,19.87,34.41,19.87v15l-7.38,3.41v43.29l7.38,3.41v14.34Z"/><path class="cls-4" d="M127.69,44.2,107.51,32.55,87.34,20.9,67.16,32.55,47,44.2,6.63,67.5h0v93.19h0l20.18,11.65L47,184l20.18,11.65,20.18,11.65,20.17-11.65L127.69,184l20.17-11.64L168,160.69h0V67.5h0Zm24.25,32.59v74.6l-17.31,10-15,8.65-16.15,9.33-16.15,9.32-7.5-4.32L55,170l-13.48-7.78L22.73,151.39V76.79L42.45,65.41,55,58.14l22.54-13,9.77-5.64,32.3,18.65Z"/><polygon class="cls-5" points="174.85 63.72 161.87 56.23 157.19 58.95 128.81 42.55 100.49 26.2 100.49 21.61 87.5 14.12 87.5 18.71 87.5 18.71 87.5 28.22 87.5 37.73 120.57 56.82 153.63 75.91 157.12 73.9 157.12 73.98 174.85 63.72"/><polygon class="cls-6" points="170.11 146.79 170.11 114.09 170.11 81.47 174.85 78.66 174.85 63.66 170.11 66.48 170.11 66.4 161.87 71.16 153.63 75.91 153.63 114.09 153.63 152.27 157.13 154.29 157.13 154.29 175 165.2 175 150.21 170.11 146.79"/><polygon class="cls-7" points="0.15 63.72 13.13 56.23 17.81 58.95 46.2 42.55 74.52 26.2 74.52 21.61 87.5 14.12 87.5 18.71 87.5 18.71 87.5 28.22 87.5 37.73 54.44 56.82 21.37 75.91 17.88 73.9 17.88 73.98 0.15 63.72"/><polygon class="cls-8" points="4.9 146.79 4.9 114.09 4.9 81.47 0.15 78.66 0.15 63.66 4.9 66.48 4.9 66.4 13.13 71.16 21.37 75.91 21.37 114.09 21.37 152.27 17.88 154.29 17.88 154.29 0 165.2 0 150.21 4.9 146.79"/><polygon class="cls-9" points="54.44 171.36 21.37 152.27 0 165.2 13.12 172.7 17.88 169.28 17.88 169.28 46.2 185.63 74.44 201.93 74.35 201.98 74.35 208.01 87.34 215.51 87.34 209.38 87.5 209.48 87.5 199.97 87.5 190.45 54.44 171.36"/><polygon class="cls-10" points="170.11 161.79 170.11 161.79 161.87 157.03 153.63 152.27 120.57 171.36 87.5 190.45 87.5 194.58 87.34 194.49 87.34 215.51 100.32 208.01 100.32 202.08 128.81 185.63 157.13 169.28 157.13 169.28 162.02 172.7 174.53 164.87 170.11 161.79"/><polygon class="cls-11" points="74.42 10.67 71.05 10.58 60.71 18.25 65.33 31.73 68.38 31.73 63.96 18.25 74.42 10.67"/><polygon class="cls-12" points="100.59 10.67 103.96 10.58 114.29 18.25 109.68 31.73 106.63 31.73 111.05 18.25 100.59 10.67"/><g class="cls-13"><polygon points="87.72 1 83.26 3.04 83.29 4.89 63.54 19.23 72.69 47.39 102.3 47.39 111.45 19.23 91.87 4.88 91.9 3.04 87.72 1"/></g><polygon class="cls-14" points="87.72 0 83.26 2.04 83.29 3.89 63.54 18.23 72.69 46.39 102.3 46.39 111.45 18.23 91.87 3.88 91.9 2.04 87.72 0"/><polygon class="cls-15" points="87.5 7.4 69.79 20.26 76.56 41.07 98.44 41.07 105.2 20.26 87.5 7.4"/><g class="cls-13"><path d="M94.43,17.74c-1.78-1.48-6.48-1.47-6.93-1.46s-5.15,0-6.93,1.46A27,27,0,0,0,80,27.86c.82,5,5.71,7.93,7.46,8h.07c1.75-.08,6.65-3,7.46-8A27.08,27.08,0,0,0,94.43,17.74Zm-8.78,5.63c-.69.69-3,.69-4,0A2.82,2.82,0,0,1,85.65,23.37Zm1.85,8.3h0c-3.37,0-5.29-3.75-5.29-3.75,2.1,1.42,5.24.41,5.29.4h0s3.19,1,5.29-.4C92.79,27.92,90.87,31.67,87.5,31.67Zm1.84-8.3a2.83,2.83,0,0,1,4,0C92.35,24.06,90,24.06,89.34,23.37Z"/><path d="M86.38,21.7s.58-.94-1-1.62-3.87-.64-4.57.92a3.24,3.24,0,0,1,2.85-.47A13.17,13.17,0,0,1,86.38,21.7Z"/><path d="M86.38,21.58s.58-.94-1-1.62-3.87-.52-4.57,1a3.12,3.12,0,0,1,2.85-.59A13.17,13.17,0,0,1,86.38,21.58Z"/><path d="M88.61,21.7s-.58-.94,1-1.62,3.86-.64,4.56.92a3.23,3.23,0,0,0-2.85-.47A13.17,13.17,0,0,0,88.61,21.7Z"/><path d="M88.61,21.58s-.58-.94,1-1.62,3.86-.52,4.56,1a3.11,3.11,0,0,0-2.85-.59A13.17,13.17,0,0,0,88.61,21.58Z"/><path d="M93.17,27.21a4.56,4.56,0,0,1-3,1.13,2.53,2.53,0,0,1-2-1.13H86.83a2.53,2.53,0,0,1-2,1.13c-1.2-.1-2.57-.51-3-1.13-.26,0-.07,0-.07,0a3.65,3.65,0,0,0,3,2.26c2.24.13,2.71-1.34,2.71-1.34s.46,1.47,2.7,1.34a3.65,3.65,0,0,0,3-2.26S93.43,27.23,93.17,27.21Z"/><path d="M93.17,27.21a4.72,4.72,0,0,1-3,1.05,2.57,2.57,0,0,1-2-1.05.83.83,0,0,0-.66-.29.79.79,0,0,0-.67.29,2.57,2.57,0,0,1-2,1.05c-1.2-.09-2.57-.47-3-1.05-.26,0-.07,0-.07,0a3.6,3.6,0,0,0,3,2.1c2.24.12,2.71-1.24,2.71-1.24s.46,1.36,2.7,1.24a3.6,3.6,0,0,0,3-2.1S93.43,27.23,93.17,27.21Z"/><path d="M87.51,36.33H87.2a.64.64,0,0,1-.69-.57l-.12-4.09H88.6l-.4,4.12A.66.66,0,0,1,87.51,36.33Z"/><path d="M87.51,35.87h-.27a.56.56,0,0,1-.6-.49l-.1-3.54h1.91l-.35,3.57A.56.56,0,0,1,87.51,35.87Z"/></g><path class="cls-16" d="M94.43,16.74c-1.78-1.48-6.48-1.47-6.93-1.46s-5.15,0-6.93,1.46A27,27,0,0,0,80,26.86c.82,5,5.71,7.93,7.46,8h.07c1.75-.08,6.65-3,7.46-8A27.08,27.08,0,0,0,94.43,16.74Zm-8.78,5.63c-.69.69-3,.69-4,0A2.82,2.82,0,0,1,85.65,22.37Zm1.85,8.3h0c-3.37,0-5.29-3.75-5.29-3.75,2.1,1.42,5.24.41,5.29.4h0s3.19,1,5.29-.4C92.79,26.92,90.87,30.67,87.5,30.67Zm1.84-8.3a2.83,2.83,0,0,1,4,0C92.35,23.06,90,23.06,89.34,22.37Z"/><path class="cls-17" d="M86.38,20.7s.58-.94-1-1.62-3.87-.64-4.57.92a3.24,3.24,0,0,1,2.85-.47A13.17,13.17,0,0,1,86.38,20.7Z"/><path class="cls-18" d="M86.38,20.58s.58-.94-1-1.62-3.87-.52-4.57,1a3.12,3.12,0,0,1,2.85-.59A13.17,13.17,0,0,1,86.38,20.58Z"/><path class="cls-17" d="M88.61,20.7s-.58-.94,1-1.62,3.86-.64,4.56.92a3.23,3.23,0,0,0-2.85-.47A13.17,13.17,0,0,0,88.61,20.7Z"/><path class="cls-19" d="M88.61,20.58s-.58-.94,1-1.62,3.86-.52,4.56,1a3.11,3.11,0,0,0-2.85-.59A13.17,13.17,0,0,0,88.61,20.58Z"/><path class="cls-17" d="M93.17,26.21a4.56,4.56,0,0,1-3,1.13,2.53,2.53,0,0,1-2-1.13H86.83a2.53,2.53,0,0,1-2,1.13c-1.2-.1-2.57-.51-3-1.13-.26,0-.07,0-.07,0a3.65,3.65,0,0,0,3,2.26c2.24.13,2.71-1.34,2.71-1.34s.46,1.47,2.7,1.34a3.65,3.65,0,0,0,3-2.26S93.43,26.23,93.17,26.21Z"/><path class="cls-20" d="M93.17,26.21a4.72,4.72,0,0,1-3,1.05,2.57,2.57,0,0,1-2-1.05.83.83,0,0,0-.66-.29.79.79,0,0,0-.67.29,2.57,2.57,0,0,1-2,1.05c-1.2-.09-2.57-.47-3-1.05-.26,0-.07,0-.07,0a3.6,3.6,0,0,0,3,2.1c2.24.12,2.71-1.24,2.71-1.24s.46,1.36,2.7,1.24a3.6,3.6,0,0,0,3-2.1S93.43,26.23,93.17,26.21Z"/><path class="cls-17" d="M87.51,35.33H87.2a.64.64,0,0,1-.69-.57l-.12-4.09H88.6l-.4,4.12A.66.66,0,0,1,87.51,35.33Z"/><path class="cls-21" d="M87.51,34.87h-.27a.56.56,0,0,1-.6-.49l-.1-3.54h1.91l-.35,3.57A.56.56,0,0,1,87.51,34.87Z"/></g></g></g></svg>